<?xml version="1.0" standalone="no"?>
<!DOCTYPE svg PUBLIC "-//W3C//DTD SVG 20010904//EN"
 "http://www.w3.org/TR/2001/REC-SVG-20010904/DTD/svg10.dtd">
<svg version="1.0" xmlns="http://www.w3.org/2000/svg"
 width="157.000000pt" height="157.000000pt" viewBox="0 0 157.000000 157.000000"
 preserveAspectRatio="xMidYMid meet">
<metadata>
Created by potrace 1.14, written by Peter Selinger 2001-2017
</metadata>
<g transform="translate(0.000000,157.000000) scale(0.100000,-0.100000)"
fill="#000000" stroke="none">
<path d="M610 1231 c-60 -17 -107 -46 -160 -99 -45 -45 -61 -71 -78 -122 -21
-63 -33 -185 -20 -206 4 -5 -9 -25 -27 -43 -46 -44 -69 -117 -61 -188 6 -51
21 -91 40 -104 5 -4 5 -12 1 -19 -5 -8 -4 -11 2 -7 13 8 46 -27 36 -38 -5 -4
-3 -5 4 -1 7 4 25 0 40 -7 34 -18 99 -26 133 -17 16 4 41 -2 70 -16 74 -37
197 -26 252 23 9 8 21 12 27 8 7 -4 8 0 4 11 -5 14 -3 16 11 11 9 -4 15 -3 11
2 -3 5 6 26 19 46 14 20 28 45 31 55 5 14 17 18 59 19 29 0 65 5 79 10 15 6
27 9 27 6 0 -6 62 36 97 66 87 74 118 210 80 344 -13 45 -103 155 -128 155 -6
0 -7 5 -4 10 4 6 3 10 -2 9 -4 -1 -10 0 -13 1 -43 16 -121 28 -169 26 -40 -3
-63 1 -81 13 -25 17 -51 29 -100 48 -30 12 -145 14 -180 4z"/>
</g>
</svg>
