<svg width="76" height="76" viewBox="0 0 76 76" fill="none" xmlns="http://www.w3.org/2000/svg">
<rect opacity="0.136765" width="76" height="76" rx="11" fill="#51CFE7"/>
<path d="M32.9497 35H30.4976V18.7446L25.5801 20.5508V18.3359L32.5674 15.7124H32.9497V35ZM52.4878 17.1758L44.5381 35H41.9805L49.9038 17.8086H39.5151V15.8047H52.4878V17.1758Z" fill="#51CFE7"/>
<path d="M34.4863 53.0146C34.4863 54.2686 34.2754 55.3643 33.8535 56.3018C33.4316 57.2334 32.834 57.9453 32.0605 58.4375C31.2871 58.9297 30.3848 59.1758 29.3535 59.1758C28.3457 59.1758 27.4521 58.9297 26.6729 58.4375C25.8936 57.9395 25.2871 57.2334 24.8535 56.3193C24.4258 55.3994 24.2061 54.3359 24.1943 53.1289V52.2061C24.1943 50.9756 24.4082 49.8887 24.8359 48.9453C25.2637 48.002 25.8672 47.2812 26.6465 46.7832C27.4316 46.2793 28.3281 46.0273 29.3359 46.0273C30.3613 46.0273 31.2637 46.2764 32.043 46.7744C32.8281 47.2666 33.4316 47.9844 33.8535 48.9277C34.2754 49.8652 34.4863 50.958 34.4863 52.2061V53.0146ZM32.8076 52.1885C32.8076 50.6709 32.5029 49.5078 31.8936 48.6992C31.2842 47.8848 30.4316 47.4775 29.3359 47.4775C28.2695 47.4775 27.4287 47.8848 26.8135 48.6992C26.2041 49.5078 25.8906 50.6328 25.873 52.0742V53.0146C25.873 54.4854 26.1807 55.6426 26.7959 56.4863C27.417 57.3242 28.2695 57.7432 29.3535 57.7432C30.4434 57.7432 31.2871 57.3477 31.8848 56.5566C32.4824 55.7598 32.79 54.6201 32.8076 53.1377V52.1885ZM40.5771 57.8486C41.1572 57.8486 41.6641 57.6729 42.0977 57.3213C42.5312 56.9697 42.7715 56.5303 42.8184 56.0029H44.3564C44.3271 56.5479 44.1396 57.0664 43.7939 57.5586C43.4482 58.0508 42.9854 58.4434 42.4053 58.7363C41.8311 59.0293 41.2217 59.1758 40.5771 59.1758C39.2822 59.1758 38.251 58.7451 37.4834 57.8838C36.7217 57.0166 36.3408 55.833 36.3408 54.333V54.0605C36.3408 53.1348 36.5107 52.3115 36.8506 51.5908C37.1904 50.8701 37.6768 50.3105 38.3096 49.9121C38.9482 49.5137 39.7012 49.3145 40.5684 49.3145C41.6348 49.3145 42.5195 49.6338 43.2227 50.2725C43.9316 50.9111 44.3096 51.7402 44.3564 52.7598H42.8184C42.7715 52.1445 42.5371 51.6406 42.1152 51.248C41.6992 50.8496 41.1836 50.6504 40.5684 50.6504C39.7422 50.6504 39.1006 50.9492 38.6436 51.5469C38.1924 52.1387 37.9668 52.9971 37.9668 54.1221V54.4297C37.9668 55.5254 38.1924 56.3691 38.6436 56.9609C39.0947 57.5527 39.7393 57.8486 40.5771 57.8486ZM48.3906 47.1875V49.4902H50.166V50.7471H48.3906V56.6445C48.3906 57.0254 48.4697 57.3125 48.6279 57.5059C48.7861 57.6934 49.0557 57.7871 49.4365 57.7871C49.624 57.7871 49.8818 57.752 50.21 57.6816V59C49.7822 59.1172 49.3662 59.1758 48.9619 59.1758C48.2354 59.1758 47.6875 58.9561 47.3184 58.5166C46.9492 58.0771 46.7646 57.4531 46.7646 56.6445V50.7471H45.0332V49.4902H46.7646V47.1875H48.3906Z" fill="#51CFE7"/>
</svg>
