<svg width="31" height="31" viewBox="0 0 31 31" fill="none" xmlns="http://www.w3.org/2000/svg">
<path fill-rule="evenodd" clip-rule="evenodd" d="M16.9541 6.8182C18.5992 6.48894 20.0767 6.7278 21.321 7.33909C21.3889 7.37242 21.4544 7.40603 21.5177 7.43977L22.737 6.93748C23.9928 6.42019 25.3199 7.50218 25.0992 8.86186C25.6972 9.53054 25.792 10.6478 24.9839 11.3837L23.7333 12.5223C23.7487 13.9225 23.56 15.1778 22.9808 16.5771C21.9481 19.0714 20.4673 20.9472 18.6557 22.252C17.3752 23.1743 16.0052 23.7599 14.6244 24.075C13.732 24.2787 12.9749 24.3422 12.4178 24.3281C10.7173 24.3476 9.15097 23.9815 7.75345 23.3588C6.92193 22.9883 6.31107 22.6055 5.94397 22.3168C4.61683 21.2732 5.37238 19.1106 7.04885 19.1544C7.37068 19.1628 7.67213 19.158 7.95406 19.1413C7.42023 18.4971 7.13687 17.8492 7.0218 17.3161C6.98183 17.131 6.97186 16.9475 6.98818 16.7703C6.87739 16.6343 6.77413 16.4931 6.6784 16.3471C6.00008 15.3122 5.79994 14.2484 5.85612 13.34C5.86017 13.284 5.86169 13.263 5.86369 13.242C5.86489 13.2294 5.86626 13.2168 5.86845 13.1967L5.86845 13.1966C5.89896 12.9328 5.98223 12.6947 6.1045 12.4884C5.74528 11.3235 5.82683 10.1522 6.16525 9.04938C6.27532 8.69068 6.3912 8.41015 6.48524 8.22188C7.04555 7.10012 8.54594 6.91806 9.3496 7.87431C10.615 9.37994 11.8648 10.2751 13.0568 10.7089C13.2047 10.7627 13.3468 10.808 13.4827 10.8454C13.8622 8.40741 15.4387 6.94925 16.9541 6.8182ZM15.1762 12.913C15.1762 12.913 12.039 13.6536 8.53834 9.48823C8.53834 9.48823 7.17443 12.2188 9.53876 13.8847C9.53876 13.8847 8.7662 14.0236 8.129 13.5611C8.129 13.5611 7.85611 15.9211 10.6751 16.8467H9.17473C9.17473 16.8467 9.58433 18.7442 12.221 19.1606C12.221 19.1606 11.13 20.6414 7.58349 20.5489C7.58349 20.5489 9.58433 22.1223 12.6306 22.0759C12.6306 22.0759 18.2677 22.3537 20.9503 15.8744C21.6098 14.281 21.5414 12.7741 21.4958 12.0333L23.2235 10.4602L21.4958 10.7841C21.4958 10.7841 22.678 9.9049 22.8147 9.07184L20.905 9.85851C20.905 9.85851 19.4728 8.53961 17.0403 9.07184C17.04 9.07184 14.8127 9.53462 15.1762 12.913Z" fill="#37474F"/>
<mask id="mask0" mask-type="alpha" maskUnits="userSpaceOnUse" x="5" y="6" width="21" height="19">
<path fill-rule="evenodd" clip-rule="evenodd" d="M16.9541 6.8182C18.5992 6.48894 20.0767 6.7278 21.321 7.33909C21.3889 7.37242 21.4544 7.40603 21.5177 7.43977L22.737 6.93748C23.9928 6.42019 25.3199 7.50218 25.0992 8.86186C25.6972 9.53054 25.792 10.6478 24.9839 11.3837L23.7333 12.5223C23.7487 13.9225 23.56 15.1778 22.9808 16.5771C21.9481 19.0714 20.4673 20.9472 18.6557 22.252C17.3752 23.1743 16.0052 23.7599 14.6244 24.075C13.732 24.2787 12.9749 24.3422 12.4178 24.3281C10.7173 24.3476 9.15097 23.9815 7.75345 23.3588C6.92193 22.9883 6.31107 22.6055 5.94397 22.3168C4.61683 21.2732 5.37238 19.1106 7.04885 19.1544C7.37068 19.1628 7.67213 19.158 7.95406 19.1413C7.42023 18.4971 7.13687 17.8492 7.0218 17.3161C6.98183 17.131 6.97186 16.9475 6.98818 16.7703C6.87739 16.6343 6.77413 16.4931 6.6784 16.3471C6.00008 15.3122 5.79994 14.2484 5.85612 13.34C5.86017 13.284 5.86169 13.263 5.86369 13.242C5.86489 13.2294 5.86626 13.2168 5.86845 13.1967L5.86845 13.1966C5.89896 12.9328 5.98223 12.6947 6.1045 12.4884C5.74528 11.3235 5.82683 10.1522 6.16525 9.04938C6.27532 8.69068 6.3912 8.41015 6.48524 8.22188C7.04555 7.10012 8.54594 6.91806 9.3496 7.87431C10.615 9.37994 11.8648 10.2751 13.0568 10.7089C13.2047 10.7627 13.3468 10.808 13.4827 10.8454C13.8622 8.40741 15.4387 6.94925 16.9541 6.8182ZM15.1762 12.913C15.1762 12.913 12.039 13.6536 8.53834 9.48823C8.53834 9.48823 7.17443 12.2188 9.53876 13.8847C9.53876 13.8847 8.7662 14.0236 8.129 13.5611C8.129 13.5611 7.85611 15.9211 10.6751 16.8467H9.17473C9.17473 16.8467 9.58433 18.7442 12.221 19.1606C12.221 19.1606 11.13 20.6414 7.58349 20.5489C7.58349 20.5489 9.58433 22.1223 12.6306 22.0759C12.6306 22.0759 18.2677 22.3537 20.9503 15.8744C21.6098 14.281 21.5414 12.7741 21.4958 12.0333L23.2235 10.4602L21.4958 10.7841C21.4958 10.7841 22.678 9.9049 22.8147 9.07184L20.905 9.85851C20.905 9.85851 19.4728 8.53961 17.0403 9.07184C17.04 9.07184 14.8127 9.53462 15.1762 12.913Z" fill="white"/>
</mask>
<g mask="url(#mask0)">
</g>
</svg>
