<svg width="77" height="76" viewBox="0 0 77 76" fill="none" xmlns="http://www.w3.org/2000/svg">
<rect x="0.662811" width="76" height="76" rx="38" fill="#4A5074"/>
<path fill-rule="evenodd" clip-rule="evenodd" d="M41.759 24.3868L50.7253 33.3531V51.7421H41.7323V44.0338C41.7323 42.6147 40.5819 41.4644 39.1628 41.4644C37.7437 41.4644 36.5934 42.6147 36.5934 44.0338V51.7421H27.6003V33.0949L36.3084 24.3868C37.8135 22.8816 40.2538 22.8816 41.759 24.3868ZM30.1698 34.1591L38.1253 26.2036C38.627 25.7019 39.4404 25.7019 39.9421 26.2036L48.1559 34.4174V49.1727H44.3017V44.0338C44.3017 41.1957 42.0009 38.8949 39.1628 38.8949C36.3247 38.8949 34.0239 41.1957 34.0239 44.0338V49.1727H30.1698V34.1591Z" fill="#EEE7E7"/>
<mask id="mask0" mask-type="alpha" maskUnits="userSpaceOnUse" x="27" y="23" width="24" height="29">
<path fill-rule="evenodd" clip-rule="evenodd" d="M41.759 24.3868L50.7253 33.3531V51.7421H41.7323V44.0338C41.7323 42.6147 40.5819 41.4644 39.1628 41.4644C37.7437 41.4644 36.5934 42.6147 36.5934 44.0338V51.7421H27.6003V33.0949L36.3084 24.3868C37.8135 22.8816 40.2538 22.8816 41.759 24.3868ZM30.1698 34.1591L38.1253 26.2036C38.627 25.7019 39.4404 25.7019 39.9421 26.2036L48.1559 34.4174V49.1727H44.3017V44.0338C44.3017 41.1957 42.0009 38.8949 39.1628 38.8949C36.3247 38.8949 34.0239 41.1957 34.0239 44.0338V49.1727H30.1698V34.1591Z" fill="white"/>
</mask>
<g mask="url(#mask0)">
</g>
</svg>
