<svg width="77" height="76" viewBox="0 0 77 76" fill="none" xmlns="http://www.w3.org/2000/svg">
<rect x="0.782959" width="76" height="76" rx="38" fill="#51CFE7"/>
<path fill-rule="evenodd" clip-rule="evenodd" d="M43.9085 22.0834H30.9751C29.6033 22.0834 28.4913 23.2608 28.4913 24.7133V48.3824C28.4913 49.8348 29.6033 51.0123 30.9751 51.0123H48.3616C49.7334 51.0123 50.8454 49.8348 50.8454 48.3824V29.4284L43.9085 22.0834ZM30.9751 24.7133H40.9103V29.9731C40.9103 31.4255 42.0223 32.603 43.3941 32.603H48.3616V48.3824H30.9751V24.7133ZM43.3941 29.9731V25.258L47.8472 29.9731H43.3941ZM43.7578 35.618L38.4265 41.263L35.579 38.2479L33.8227 40.1075L38.4265 44.9822L45.5142 37.4776L43.7578 35.618Z" fill="#262626"/>
</svg>
