<svg width="77" height="76" viewBox="0 0 77 76" fill="none" xmlns="http://www.w3.org/2000/svg">
<rect x="0.662811" width="76" height="76" rx="38" fill="#FFCD7C"/>
<path d="M48.8667 27.7557C48.3128 28.3096 48.2667 29.1713 48.759 29.7867C50.99 32.587 52.1594 36.4181 51.1131 40.4339C49.8976 45.1266 46.2203 48.6347 41.5583 49.5732C33.7114 51.1272 26.8338 45.0651 26.8338 37.4798C26.8338 31.2022 31.5266 26.0325 37.6041 25.2786V28.3866C32.7883 29.202 29.2495 33.7102 30.0188 38.8953C30.6188 42.911 33.9576 46.1421 37.9888 46.6345C43.5893 47.3269 48.3744 42.9572 48.3744 37.4798C48.3744 35.5565 47.7897 33.7871 46.7896 32.31C46.2665 31.5407 45.1433 31.4946 44.4817 32.1408L44.4663 32.1562C43.9432 32.6793 43.897 33.4948 44.2971 34.1102C45.2202 35.5257 45.5895 37.3413 45.051 39.2184C44.4509 41.3263 42.6815 43.0034 40.5275 43.4803C36.5271 44.3573 32.9883 41.3417 32.9883 37.4798C32.9883 34.6179 34.9577 32.2331 37.6041 31.5407V34.8333C36.6809 35.3719 36.0655 36.3412 36.0655 37.4798C36.0655 39.1722 37.4502 40.557 39.1427 40.557C40.8352 40.557 42.2199 39.1722 42.2199 37.4798C42.2199 36.3412 41.6045 35.3565 40.6813 34.8333V23.1861C40.6813 22.586 40.189 22.0937 39.5889 22.0937C31.342 21.7859 24.2336 28.3404 23.7874 36.5566C23.2335 46.6345 32.1113 54.743 42.2661 52.5581C48.2359 51.2811 52.8517 46.7114 54.1903 40.757C55.2827 35.895 53.8826 31.2792 51.1593 27.8788C50.59 27.1557 49.5129 27.1095 48.8667 27.7557Z" fill="#37474F"/>
<mask id="mask0" mask-type="alpha" maskUnits="userSpaceOnUse" x="23" y="22" width="32" height="31">
<path d="M48.8667 27.7557C48.3128 28.3096 48.2667 29.1713 48.759 29.7867C50.99 32.587 52.1594 36.4181 51.1131 40.4339C49.8976 45.1266 46.2203 48.6347 41.5583 49.5732C33.7114 51.1272 26.8338 45.0651 26.8338 37.4798C26.8338 31.2022 31.5266 26.0325 37.6041 25.2786V28.3866C32.7883 29.202 29.2495 33.7102 30.0188 38.8953C30.6188 42.911 33.9576 46.1421 37.9888 46.6345C43.5893 47.3269 48.3744 42.9572 48.3744 37.4798C48.3744 35.5565 47.7897 33.7871 46.7896 32.31C46.2665 31.5407 45.1433 31.4946 44.4817 32.1408L44.4663 32.1562C43.9432 32.6793 43.897 33.4948 44.2971 34.1102C45.2202 35.5257 45.5895 37.3413 45.051 39.2184C44.4509 41.3263 42.6815 43.0034 40.5275 43.4803C36.5271 44.3573 32.9883 41.3417 32.9883 37.4798C32.9883 34.6179 34.9577 32.2331 37.6041 31.5407V34.8333C36.6809 35.3719 36.0655 36.3412 36.0655 37.4798C36.0655 39.1722 37.4502 40.557 39.1427 40.557C40.8352 40.557 42.2199 39.1722 42.2199 37.4798C42.2199 36.3412 41.6045 35.3565 40.6813 34.8333V23.1861C40.6813 22.586 40.189 22.0937 39.5889 22.0937C31.342 21.7859 24.2336 28.3404 23.7874 36.5566C23.2335 46.6345 32.1113 54.743 42.2661 52.5581C48.2359 51.2811 52.8517 46.7114 54.1903 40.757C55.2827 35.895 53.8826 31.2792 51.1593 27.8788C50.59 27.1557 49.5129 27.1095 48.8667 27.7557Z" fill="white"/>
</mask>
<g mask="url(#mask0)">
</g>
</svg>
