<svg width="77" height="76" viewBox="0 0 77 76" fill="none" xmlns="http://www.w3.org/2000/svg">
<rect x="0.782959" width="76" height="76" rx="38" fill="#F99A93"/>
<path fill-rule="evenodd" clip-rule="evenodd" d="M26.4357 46.4931C26.4357 48.6218 28.1613 50.3473 30.2899 50.3473H48.276C50.4047 50.3473 52.1302 48.6218 52.1302 46.4931V28.507C52.1302 26.3784 50.4047 24.6528 48.276 24.6528H30.2899C28.1613 24.6528 26.4357 26.3784 26.4357 28.507V46.4931ZM49.5607 46.4931C49.5607 47.2027 48.9856 47.7778 48.276 47.7778H30.2899C29.5804 47.7778 29.0052 47.2027 29.0052 46.4931V28.507C29.0052 27.7975 29.5804 27.2223 30.2899 27.2223H36.7135V37.5143L39.7904 37.5144L41.8525 34.7561L43.9145 37.5144H46.9914L46.9913 27.2223H48.276C48.9856 27.2223 49.5607 27.7975 49.5607 28.507V46.4931ZM39.283 27.2223H44.4218V34.0772L41.8525 30.6402L39.283 34.0774V27.2223Z" fill="#2D2D2D"/>
<mask id="mask0" mask-type="alpha" maskUnits="userSpaceOnUse" x="26" y="24" width="27" height="27">
<path fill-rule="evenodd" clip-rule="evenodd" d="M26.4357 46.4931C26.4357 48.6218 28.1613 50.3473 30.2899 50.3473H48.276C50.4047 50.3473 52.1302 48.6218 52.1302 46.4931V28.507C52.1302 26.3784 50.4047 24.6528 48.276 24.6528H30.2899C28.1613 24.6528 26.4357 26.3784 26.4357 28.507V46.4931ZM49.5607 46.4931C49.5607 47.2027 48.9856 47.7778 48.276 47.7778H30.2899C29.5804 47.7778 29.0052 47.2027 29.0052 46.4931V28.507C29.0052 27.7975 29.5804 27.2223 30.2899 27.2223H36.7135V37.5143L39.7904 37.5144L41.8525 34.7561L43.9145 37.5144H46.9914L46.9913 27.2223H48.276C48.9856 27.2223 49.5607 27.7975 49.5607 28.507V46.4931ZM39.283 27.2223H44.4218V34.0772L41.8525 30.6402L39.283 34.0774V27.2223Z" fill="white"/>
</mask>
<g mask="url(#mask0)">
</g>
</svg>
