<svg width="22" height="24" viewBox="0 0 22 24" fill="none" xmlns="http://www.w3.org/2000/svg">
<path fill-rule="evenodd" clip-rule="evenodd" d="M15.1124 0.875H6.73747C3.26846 0.875 0.456268 3.88824 0.456268 7.60526V16.5789C0.456268 20.296 3.26846 23.3092 6.73747 23.3092H15.1124C18.5814 23.3092 21.3936 20.296 21.3936 16.5789V7.60526C21.3936 3.88824 18.5814 0.875 15.1124 0.875ZM2.55001 7.60526C2.55001 5.12724 4.4248 3.11841 6.73748 3.11841H15.1124C17.4251 3.11841 19.2999 5.12724 19.2999 7.60526V16.5789C19.2999 19.057 17.4251 21.0658 15.1124 21.0658H6.73748C4.4248 21.0658 2.55001 19.057 2.55001 16.5789V7.60526ZM10.9249 17.7007C8.0341 17.7007 5.6906 15.1896 5.6906 12.0921C5.6906 8.99459 8.0341 6.48355 10.9249 6.48355C13.8158 6.48355 16.1593 8.99459 16.1593 12.0921C16.1593 15.1896 13.8158 17.7007 10.9249 17.7007ZM10.9249 15.4572C12.6595 15.4572 14.0655 13.9506 14.0655 12.0921C14.0655 10.2336 12.6595 8.72696 10.9249 8.72696C9.19044 8.72696 7.78435 10.2336 7.78435 12.0921C7.78435 13.9506 9.19044 15.4572 10.9249 15.4572ZM16.1593 7.60527C16.7375 7.60527 17.2062 7.10306 17.2062 6.48356C17.2062 5.86405 16.7375 5.36185 16.1593 5.36185C15.5811 5.36185 15.1124 5.86405 15.1124 6.48356C15.1124 7.10306 15.5811 7.60527 16.1593 7.60527Z" fill="#262626"/>
</svg>
