<svg width="16" height="17" viewBox="0 0 16 17" fill="none" xmlns="http://www.w3.org/2000/svg">
<path fill-rule="evenodd" clip-rule="evenodd" d="M14.7097 1.99488C13.871 1.12392 12.6774 0.672302 11.3226 0.672302H4.67742C1.87097 0.672302 0 2.54327 0 5.34972V11.9626C0 13.3497 0.451613 14.5433 1.35484 15.4142C2.22581 16.2529 3.3871 16.6723 4.70968 16.6723H11.2903C12.6774 16.6723 13.8387 16.2207 14.6774 15.4142C15.5484 14.5755 16 13.382 16 11.9949V5.34972C16 3.99488 15.5484 2.83359 14.7097 1.99488ZM12.2903 5.34972C12.807 5.34972 13.2258 4.93089 13.2258 4.41424C13.2258 3.89758 12.807 3.47875 12.2903 3.47875C11.7737 3.47875 11.3548 3.89758 11.3548 4.41424C11.3548 4.93089 11.7737 5.34972 12.2903 5.34972ZM8 4.51101C5.74194 4.51101 3.87097 6.34972 3.87097 8.64004C3.87097 10.9304 5.70968 12.7691 8 12.7691C10.2903 12.7691 12.129 10.8981 12.129 8.64004C12.129 6.38198 10.2581 4.51101 8 4.51101ZM8 11.2852C6.54839 11.2852 5.35484 10.0917 5.35484 8.64004C5.35484 7.18843 6.54839 5.99488 8 5.99488C9.45161 5.99488 10.6452 7.18843 10.6452 8.64004C10.6452 10.0917 9.45161 11.2852 8 11.2852ZM13.6452 14.3497C14.2258 13.8013 14.5806 12.9949 14.5806 11.9949V5.34972C14.5806 4.41424 14.2581 3.60779 13.7097 3.02714C13.129 2.4465 12.3226 2.15617 11.3548 2.15617H4.70968C3.74194 2.15617 2.90323 2.4465 2.35484 2.99488C1.77419 3.57553 1.48387 4.38198 1.48387 5.34972V11.9626C1.48387 12.9626 1.77419 13.7691 2.35484 14.3497C2.93548 14.8981 3.74194 15.1884 4.70968 15.1884H11.2903C12.2581 15.1884 13.0645 14.8981 13.6452 14.3497Z" fill="white"/>
<mask id="mask0" mask-type="alpha" maskUnits="userSpaceOnUse" x="0" y="0" width="16" height="17">
<path fill-rule="evenodd" clip-rule="evenodd" d="M14.7097 1.99488C13.871 1.12392 12.6774 0.672302 11.3226 0.672302H4.67742C1.87097 0.672302 0 2.54327 0 5.34972V11.9626C0 13.3497 0.451613 14.5433 1.35484 15.4142C2.22581 16.2529 3.3871 16.6723 4.70968 16.6723H11.2903C12.6774 16.6723 13.8387 16.2207 14.6774 15.4142C15.5484 14.5755 16 13.382 16 11.9949V5.34972C16 3.99488 15.5484 2.83359 14.7097 1.99488ZM12.2903 5.34972C12.807 5.34972 13.2258 4.93089 13.2258 4.41424C13.2258 3.89758 12.807 3.47875 12.2903 3.47875C11.7737 3.47875 11.3548 3.89758 11.3548 4.41424C11.3548 4.93089 11.7737 5.34972 12.2903 5.34972ZM8 4.51101C5.74194 4.51101 3.87097 6.34972 3.87097 8.64004C3.87097 10.9304 5.70968 12.7691 8 12.7691C10.2903 12.7691 12.129 10.8981 12.129 8.64004C12.129 6.38198 10.2581 4.51101 8 4.51101ZM8 11.2852C6.54839 11.2852 5.35484 10.0917 5.35484 8.64004C5.35484 7.18843 6.54839 5.99488 8 5.99488C9.45161 5.99488 10.6452 7.18843 10.6452 8.64004C10.6452 10.0917 9.45161 11.2852 8 11.2852ZM13.6452 14.3497C14.2258 13.8013 14.5806 12.9949 14.5806 11.9949V5.34972C14.5806 4.41424 14.2581 3.60779 13.7097 3.02714C13.129 2.4465 12.3226 2.15617 11.3548 2.15617H4.70968C3.74194 2.15617 2.90323 2.4465 2.35484 2.99488C1.77419 3.57553 1.48387 4.38198 1.48387 5.34972V11.9626C1.48387 12.9626 1.77419 13.7691 2.35484 14.3497C2.93548 14.8981 3.74194 15.1884 4.70968 15.1884H11.2903C12.2581 15.1884 13.0645 14.8981 13.6452 14.3497Z" fill="white"/>
</mask>
<g mask="url(#mask0)">
</g>
</svg>
