<svg width="23" height="21" viewBox="0 0 23 21" fill="none" xmlns="http://www.w3.org/2000/svg">
<path fill-rule="evenodd" clip-rule="evenodd" d="M7.1815 5.66447H8.71339V4.9046H14.8409V5.66447H16.3728V4.9046H17.9047V7.18421H5.64962V4.9046H7.1815V5.66447ZM5.64962 8.70395V16.3026H17.9047V8.70395H5.64962ZM8.71339 3.38487H14.8409V2.625H16.3728V3.38487H17.9047C18.7507 3.38487 19.4366 4.06528 19.4366 4.90461V16.3026C19.4366 17.142 18.7507 17.8224 17.9047 17.8224H5.64962C4.80359 17.8224 4.11774 17.142 4.11774 16.3026V4.90461C4.11774 4.06528 4.80359 3.38487 5.64962 3.38487H7.1815V2.625H8.71339V3.38487Z" fill="#565656"/>
</svg>
