<svg width="25" height="24" viewBox="0 0 25 24" fill="none" xmlns="http://www.w3.org/2000/svg">
<path fill-rule="evenodd" clip-rule="evenodd" d="M12.7038 20.3333C17.3061 20.3333 21.0371 16.6023 21.0371 12C21.0371 7.39761 17.3061 3.66666 12.7038 3.66666C8.10138 3.66666 4.37042 7.39761 4.37042 12C4.37042 16.6023 8.10138 20.3333 12.7038 20.3333ZM12.7038 18.6667C16.3857 18.6667 19.3704 15.6819 19.3704 12C19.3704 8.31809 16.3857 5.33332 12.7038 5.33332C9.02186 5.33332 6.03709 8.31809 6.03709 12C6.03709 15.6819 9.02186 18.6667 12.7038 18.6667ZM11.8704 7.83332H10.2038V13.6667H16.0371V12H11.8704V7.83332Z" fill="#2D2D2D"/>
<mask id="mask0" mask-type="alpha" maskUnits="userSpaceOnUse" x="4" y="3" width="18" height="18">
<path fill-rule="evenodd" clip-rule="evenodd" d="M12.7038 20.3333C17.3061 20.3333 21.0371 16.6023 21.0371 12C21.0371 7.39761 17.3061 3.66666 12.7038 3.66666C8.10138 3.66666 4.37042 7.39761 4.37042 12C4.37042 16.6023 8.10138 20.3333 12.7038 20.3333ZM12.7038 18.6667C16.3857 18.6667 19.3704 15.6819 19.3704 12C19.3704 8.31809 16.3857 5.33332 12.7038 5.33332C9.02186 5.33332 6.03709 8.31809 6.03709 12C6.03709 15.6819 9.02186 18.6667 12.7038 18.6667ZM11.8704 7.83332H10.2038V13.6667H16.0371V12H11.8704V7.83332Z" fill="white"/>
</mask>
<g mask="url(#mask0)">
</g>
</svg>
